{
   "accessors" : [
      {
         "bufferView" : 0,
         "byteOffset" : 0,
         "componentType" : 5123,
         "count" : 10560,
         "max" : [ 2025 ],
         "min" : [ 0 ],
         "name" : "buffer-0-group-0-mesh-0-indices",
         "type" : "SCALAR"
      },
      {
         "bufferView" : 1,
         "byteOffset" : 0,
         "componentType" : 5126,
         "count" : 2026,
         "max" : [ -6.310200214385986, 17.11129951477051, 28.70019912719727 ],
         "min" : [ -31.41510009765625, 14.75080013275146, 4.530399799346924 ],
         "name" : "buffer-0-group-0-mesh-0-position",
         "type" : "VEC3"
      },
      {
         "bufferView" : 1,
         "byteOffset" : 24312,
         "componentType" : 5126,
         "count" : 2026,
         "max" : [ 0.9979380965232849, 0.9999937415122986, 0.9959661960601807 ],
         "min" : [ -0.9971117377281189, -1, -0.9862415790557861 ],
         "name" : "buffer-0-group-0-mesh-0-normal",
         "type" : "VEC3"
      },
      {
         "bufferView" : 2,
         "byteOffset" : 0,
         "componentType" : 5126,
         "count" : 2026,
         "max" : [ 1.204499959945679, 0.2010000050067902 ],
         "min" : [ -0.2046000063419342, -1.201599955558777 ],
         "name" : "buffer-0-group-0-mesh-0-texcoord",
         "type" : "VEC2"
      },
      {
         "bufferView" : 0,
         "byteOffset" : 21120,
         "componentType" : 5123,
         "count" : 15576,
         "max" : [ 2673 ],
         "min" : [ 0 ],
         "name" : "buffer-0-group-1-mesh-0-indices",
         "type" : "SCALAR"
      },
      {
         "bufferView" : 1,
         "byteOffset" : 48624,
         "componentType" : 5126,
         "count" : 2674,
         "max" : [ -6.003399848937988, 30.22999954223633, 27.88870048522949 ],
         "min" : [ -31.64979934692383, 0.001500000013038516, 2.449199914932251 ],
         "name" : "buffer-0-group-1-mesh-0-position",
         "type" : "VEC3"
      },
      {
         "bufferView" : 1,
         "byteOffset" : 80712,
         "componentType" : 5126,
         "count" : 2674,
         "max" : [ 0.9997249245643616, 1, 0.9999969601631165 ],
         "min" : [ -0.9997375011444092, -1, -0.9999967217445374 ],
         "name" : "buffer-0-group-1-mesh-0-normal",
         "type" : "VEC3"
      },
      {
         "bufferView" : 2,
         "byteOffset" : 16208,
         "componentType" : 5126,
         "count" : 2674,
         "max" : [ 7.868199825286865, 15.42879962921143 ],
         "min" : [ -19.27969932556152, -12.66230010986328 ],
         "name" : "buffer-0-group-1-mesh-0-texcoord",
         "type" : "VEC2"
      }
   ],
   "asset" : {
      "extras" : {
         "GOOGLE_processor_version" : 310838669
      },
      "generator" : "Obj2GltfConverter",
      "version" : "2.0"
   },
   "bufferViews" : [
      {
         "buffer" : 0,
         "byteLength" : 52272,
         "byteOffset" : 0,
         "name" : "buffer-0-bufferview-ushort",
         "target" : 34963
      },
      {
         "buffer" : 0,
         "byteLength" : 112800,
         "byteOffset" : 52272,
         "byteStride" : 12,
         "name" : "buffer-0-bufferview-vec3",
         "target" : 34962
      },
      {
         "buffer" : 0,
         "byteLength" : 37600,
         "byteOffset" : 165072,
         "byteStride" : 8,
         "name" : "buffer-0-bufferview-vec2",
         "target" : 34962
      }
   ],
   "buffers" : [
      {
         "byteLength" : 202672,
         "name" : "buffer-0",
         "uri" : "cadeira_2.bin"
      }
   ],
   "cameras" : [
      {
         "perspective" : {
            "yfov" : 0.7853981633974483,
            "znear" : 0.1000000014901161
         },
         "type" : "perspective"
      }
   ],
   "extensions" : {
      "GOOGLE_lights_image_based" : {
         "lights" : [
            {
               "intensity" : 1,
               "pmremTexture" : {
                  "index" : 0
               },
               "rotation" : 0
            }
         ]
      },
      "KHR_lights_punctual" : {
         "lights" : [
            {
               "color" : [ 1, 0.9333333333333333, 0.8666666666666667 ],
               "intensity" : 0.25,
               "name" : "headLight",
               "type" : "directional"
            },
            {
               "color" : [ 1, 0.9333333333333333, 0.8666666666666667 ],
               "intensity" : 0.324999988079071,
               "name" : "keyLight",
               "type" : "directional"
            }
         ]
      }
   },
   "extensionsUsed" : [
      "GOOGLE_backgrounds",
      "GOOGLE_lights_image_based",
      "GOOGLE_camera_settings",
      "KHR_lights_punctual"
   ],
   "extras" : {
      "GOOGLE_initial_camera_motion" : {
         "motionPath" : "FULL_ROTATION"
      },
      "GOOGLE_lighting_rig" : {
         "disableShadows" : false
      }
   },
   "images" : [
      {
         "uri" : "poly_pmrem_cubeuv_studio.jpg"
      }
   ],
   "materials" : [
      {
         "alphaCutoff" : 0.5,
         "alphaMode" : "OPAQUE",
         "doubleSided" : true,
         "emissiveFactor" : [ 0, 0, 0 ],
         "name" : "2",
         "pbrMetallicRoughness" : {
            "baseColorFactor" : [ 1, 1, 1, 1 ],
            "metallicFactor" : 0,
            "roughnessFactor" : 0.9699476361274719
         }
      },
      {
         "alphaCutoff" : 0.5,
         "alphaMode" : "OPAQUE",
         "doubleSided" : true,
         "emissiveFactor" : [ 0, 0, 0 ],
         "name" : "1",
         "pbrMetallicRoughness" : {
            "baseColorFactor" : [ 0.5879999995231628, 0.5879999995231628, 0.5879999995231628, 1 ],
            "metallicFactor" : 1,
            "roughnessFactor" : 0
         }
      }
   ],
   "meshes" : [
      {
         "name" : "buffer-0-mesh-0",
         "primitives" : [
            {
               "attributes" : {
                  "NORMAL" : 2,
                  "POSITION" : 1,
                  "TEXCOORD_0" : 3
               },
               "indices" : 0,
               "material" : 0,
               "mode" : 4
            },
            {
               "attributes" : {
                  "NORMAL" : 6,
                  "POSITION" : 5,
                  "TEXCOORD_0" : 7
               },
               "indices" : 4,
               "material" : 1,
               "mode" : 4
            }
         ]
      }
   ],
   "nodes" : [
      {
         "mesh" : 0,
         "name" : "node-0"
      },
      {
         "children" : [ 2 ]
      },
      {
         "children" : [ 3 ],
         "extras" : {
            "isTransformNode" : 1
         },
         "translation" : [ -18.82452743818128, 19.44051405394714, 16.70961985765865 ]
      },
      {
         "children" : [ 0 ],
         "translation" : [ 18.82452743818128, -19.44051405394714, -16.70961985765865 ]
      },
      {
         "camera" : 0,
         "children" : [ 5 ],
         "rotation" : [
            -0.07663599724668051,
            0.6408827282666192,
            0.0645335011168055,
            0.7610727164792788
         ],
         "translation" : [ 48.17858593567375, 33.26732000180164, 28.28365946785763 ]
      },
      {
         "extensions" : {
            "KHR_lights_punctual" : {
               "light" : 0
            }
         },
         "extras" : {
            "isHeadLight" : 1
         },
         "name" : "headLightNode",
         "translation" : [ -30.72992362068704, 15.36496181034352, 15.36496181034352 ]
      },
      {
         "extensions" : {
            "KHR_lights_punctual" : {
               "light" : 1
            }
         },
         "extras" : {
            "isKeyLight" : 1
         },
         "name" : "keyLightNode",
         "rotation" : [ -0.7505326882858236, -0.3752663441429118, 0, 0.5439447166468927 ],
         "scale" : [ 0, 0, 31.03722285689391 ],
         "translation" : [ -50.02595615917263, 81.36050173181845, -18.87361462266087 ]
      }
   ],
   "scene" : 0,
   "scenes" : [
      {
         "extensions" : {
            "GOOGLE_backgrounds" : {
               "color" : [ 0.6196078431372549, 0.6196078431372549, 0.6196078431372549 ]
            },
            "GOOGLE_camera_settings" : {
               "mode" : "movableOrbit",
               "pivot" : [ -18.83582797664171, 19.43118426393317, 16.70825936141932 ]
            },
            "GOOGLE_lights_image_based" : {
               "light" : 0
            }
         },
         "extras" : {
            "GOOGLE_camera_index" : {
               "cameraIndex" : 0,
               "nodeIndex" : 4
            },
            "GOOGLE_geometry_data" : {
               "stats" : {
                  "centroid" : [ -18.98873330227872, 19.28605601803063, 12.16360823423304 ],
                  "radius" : 30.72992362068704,
                  "stdev" : 14.30614351853733
               },
               "visualCenterPoint" : [ -18.82452743818128, 19.44051405394714, 16.70961985765865 ]
            }
         },
         "name" : "scene-0",
         "nodes" : [ 1, 4, 6 ]
      }
   ]
}
