{
   "accessors" : [
      {
         "bufferView" : 0,
         "byteOffset" : 0,
         "componentType" : 5123,
         "count" : 360,
         "max" : [ 63 ],
         "min" : [ 0 ],
         "name" : "buffer-0-group-0-mesh-0-indices",
         "type" : "SCALAR"
      },
      {
         "bufferView" : 1,
         "byteOffset" : 0,
         "componentType" : 5126,
         "count" : 64,
         "max" : [ 13.87110042572021, 6.372700214385986, 22.30590057373047 ],
         "min" : [ -48.42789840698242, -0.005499999970197678, -8.827400207519531 ],
         "name" : "buffer-0-group-0-mesh-0-position",
         "type" : "VEC3"
      },
      {
         "bufferView" : 1,
         "byteOffset" : 768,
         "componentType" : 5126,
         "count" : 64,
         "max" : [ 0.8962923288345337, 0.7538281083106995, 0.7578207850456238 ],
         "min" : [ -0.8962923288345337, -0.8202560544013977, -0.6762897968292236 ],
         "name" : "buffer-0-group-0-mesh-0-normal",
         "type" : "VEC3"
      },
      {
         "bufferView" : 0,
         "byteOffset" : 720,
         "componentType" : 5123,
         "count" : 88632,
         "max" : [ 14830 ],
         "min" : [ 0 ],
         "name" : "buffer-0-group-1-mesh-0-indices",
         "type" : "SCALAR"
      },
      {
         "bufferView" : 1,
         "byteOffset" : 1536,
         "componentType" : 5126,
         "count" : 14831,
         "max" : [ 15.39009952545166, 32.49530029296875, 22.0004997253418 ],
         "min" : [ -49.59550094604492, 6.102799892425537, -12.12790012359619 ],
         "name" : "buffer-0-group-1-mesh-0-position",
         "type" : "VEC3"
      },
      {
         "bufferView" : 1,
         "byteOffset" : 179508,
         "componentType" : 5126,
         "count" : 14831,
         "max" : [ 0.999997079372406, 1, 0.9999985098838806 ],
         "min" : [ -0.9999972581863403, -0.9999880194664001, -0.9999839067459106 ],
         "name" : "buffer-0-group-1-mesh-0-normal",
         "type" : "VEC3"
      },
      {
         "bufferView" : 0,
         "byteOffset" : 177984,
         "componentType" : 5123,
         "count" : 39312,
         "max" : [ 7223 ],
         "min" : [ 0 ],
         "name" : "buffer-0-group-2-mesh-0-indices",
         "type" : "SCALAR"
      },
      {
         "bufferView" : 1,
         "byteOffset" : 357480,
         "componentType" : 5126,
         "count" : 7224,
         "max" : [ 15.64560031890869, 32.58549880981445, 22.34029960632324 ],
         "min" : [ -49.59600067138672, 10.23910045623779, -7.470399856567383 ],
         "name" : "buffer-0-group-2-mesh-0-position",
         "type" : "VEC3"
      },
      {
         "bufferView" : 1,
         "byteOffset" : 444168,
         "componentType" : 5126,
         "count" : 7224,
         "max" : [ 1, 0.9999991655349731, 0.9999740719795227 ],
         "min" : [ -1, -0.9999911189079285, -0.9999730587005615 ],
         "name" : "buffer-0-group-2-mesh-0-normal",
         "type" : "VEC3"
      },
      {
         "bufferView" : 2,
         "byteOffset" : 0,
         "componentType" : 5126,
         "count" : 7224,
         "max" : [ 1, 0 ],
         "min" : [ 0, -1 ],
         "name" : "buffer-0-group-2-mesh-0-texcoord",
         "type" : "VEC2"
      }
   ],
   "asset" : {
      "extras" : {
         "GOOGLE_processor_version" : 310838669
      },
      "generator" : "Obj2GltfConverter",
      "version" : "2.0"
   },
   "bufferViews" : [
      {
         "buffer" : 0,
         "byteLength" : 256608,
         "byteOffset" : 0,
         "name" : "buffer-0-bufferview-ushort",
         "target" : 34963
      },
      {
         "buffer" : 0,
         "byteLength" : 530856,
         "byteOffset" : 256608,
         "byteStride" : 12,
         "name" : "buffer-0-bufferview-vec3",
         "target" : 34962
      },
      {
         "buffer" : 0,
         "byteLength" : 57792,
         "byteOffset" : 787464,
         "byteStride" : 8,
         "name" : "buffer-0-bufferview-vec2",
         "target" : 34962
      }
   ],
   "buffers" : [
      {
         "byteLength" : 845256,
         "name" : "buffer-0",
         "uri" : "sofa_3.bin"
      }
   ],
   "cameras" : [
      {
         "perspective" : {
            "yfov" : 0.7853981633974483,
            "znear" : 0.1000000014901161
         },
         "type" : "perspective"
      }
   ],
   "extensions" : {
      "GOOGLE_lights_image_based" : {
         "lights" : [
            {
               "intensity" : 1,
               "pmremTexture" : {
                  "index" : 0
               },
               "rotation" : 0
            }
         ]
      },
      "KHR_lights_punctual" : {
         "lights" : [
            {
               "color" : [ 1, 0.9333333333333333, 0.8666666666666667 ],
               "intensity" : 0.25,
               "name" : "headLight",
               "type" : "directional"
            },
            {
               "color" : [ 1, 0.9333333333333333, 0.8666666666666667 ],
               "intensity" : 0.324999988079071,
               "name" : "keyLight",
               "type" : "directional"
            }
         ]
      }
   },
   "extensionsUsed" : [
      "GOOGLE_backgrounds",
      "GOOGLE_lights_image_based",
      "GOOGLE_camera_settings",
      "KHR_lights_punctual"
   ],
   "extras" : {
      "GOOGLE_initial_camera_motion" : {
         "motionPath" : "FULL_ROTATION"
      },
      "GOOGLE_lighting_rig" : {
         "disableShadows" : false
      }
   },
   "images" : [
      {
         "uri" : "poly_pmrem_cubeuv_studio.jpg"
      }
   ],
   "materials" : [
      {
         "alphaCutoff" : 0.5,
         "alphaMode" : "OPAQUE",
         "doubleSided" : true,
         "emissiveFactor" : [ 0, 0, 0 ],
         "name" : "Material__3",
         "pbrMetallicRoughness" : {
            "baseColorFactor" : [ 0.5879999995231628, 0.5879999995231628, 0.5879999995231628, 1 ],
            "metallicFactor" : 1,
            "roughnessFactor" : 0
         }
      },
      {
         "alphaCutoff" : 0.5,
         "alphaMode" : "OPAQUE",
         "doubleSided" : true,
         "emissiveFactor" : [ 0, 0, 0 ],
         "name" : "Material__2",
         "pbrMetallicRoughness" : {
            "baseColorFactor" : [ 1, 0, 0, 1 ],
            "metallicFactor" : 0,
            "roughnessFactor" : 1
         }
      }
   ],
   "meshes" : [
      {
         "name" : "buffer-0-mesh-0",
         "primitives" : [
            {
               "attributes" : {
                  "NORMAL" : 2,
                  "POSITION" : 1
               },
               "indices" : 0,
               "material" : 0,
               "mode" : 4
            },
            {
               "attributes" : {
                  "NORMAL" : 5,
                  "POSITION" : 4
               },
               "indices" : 3,
               "material" : 1,
               "mode" : 4
            },
            {
               "attributes" : {
                  "NORMAL" : 8,
                  "POSITION" : 7,
                  "TEXCOORD_0" : 9
               },
               "indices" : 6,
               "material" : 1,
               "mode" : 4
            }
         ]
      }
   ],
   "nodes" : [
      {
         "mesh" : 0,
         "name" : "node-0"
      },
      {
         "children" : [ 2 ]
      },
      {
         "children" : [ 3 ],
         "extras" : {
            "isTransformNode" : 1
         },
         "translation" : [ -17.26813389339478, 18.27692218582033, 5.255253119848964 ]
      },
      {
         "children" : [ 0 ],
         "translation" : [ 17.26813389339478, -18.27692218582033, -5.255253119848964 ]
      },
      {
         "camera" : 0,
         "children" : [ 5 ],
         "rotation" : [
            -0.11054086033556,
            0.417897465611749,
            0.05131135741666745,
            0.9002830505077891
         ],
         "translation" : [ 48.53986376340092, 39.75806996281185, 60.87016794621941 ]
      },
      {
         "extensions" : {
            "KHR_lights_punctual" : {
               "light" : 0
            }
         },
         "extras" : {
            "isHeadLight" : 1
         },
         "name" : "headLightNode",
         "translation" : [ -45.50879026694134, 22.75439513347067, 22.75439513347067 ]
      },
      {
         "extensions" : {
            "KHR_lights_punctual" : {
               "light" : 1
            }
         },
         "extras" : {
            "isKeyLight" : 1
         },
         "name" : "keyLightNode",
         "rotation" : [ -0.7505326882858236, -0.3752663441429118, 0, 0.5439447166468927 ],
         "scale" : [ 0, 0, 45.96387816961075 ],
         "translation" : [ -63.61061227761488, 110.6839402615547, -43.1249185070866 ]
      }
   ],
   "scene" : 0,
   "scenes" : [
      {
         "extensions" : {
            "GOOGLE_backgrounds" : {
               "color" : [ 0.01176470588235294, 0.6627450980392157, 0.9568627450980393 ]
            },
            "GOOGLE_camera_settings" : {
               "mode" : "movableOrbit",
               "pivot" : [ -17.27052952815657, 18.2754046519013, 5.256071100706208 ]
            },
            "GOOGLE_lights_image_based" : {
               "light" : 0
            }
         },
         "extras" : {
            "GOOGLE_camera_index" : {
               "cameraIndex" : 0,
               "nodeIndex" : 4
            },
            "GOOGLE_geometry_data" : {
               "stats" : {
                  "centroid" : [ -17.64673410800413, 18.75618392233324, 2.838959662524146 ],
                  "radius" : 45.50879026694134,
                  "stdev" : 25.23733219802929
               },
               "visualCenterPoint" : [ -17.26813389339478, 18.27692218582033, 5.255253119848964 ]
            }
         },
         "name" : "scene-0",
         "nodes" : [ 1, 4, 6 ]
      }
   ]
}
